<?xml version="1.0" standalone="no"?>
<!DOCTYPE svg PUBLIC "-//W3C//DTD SVG 20010904//EN"
 "http://www.w3.org/TR/2001/REC-SVG-20010904/DTD/svg10.dtd">
<svg version="1.0" xmlns="http://www.w3.org/2000/svg"
 width="900.000000pt" height="129.000000pt" viewBox="0 0 900.000000 129.000000"
 preserveAspectRatio="xMidYMid meet">
<metadata>
Created by potrace 1.10, written by Peter Selinger 2001-2011
</metadata>
<g transform="translate(0.000000,129.000000) scale(0.100000,-0.100000)"
fill="#000000" stroke="none">
<path d="M8918 1209 c-98 -67 -413 -221 -528 -259 -14 -5 -50 -18 -80 -30 -30
-12 -68 -25 -85 -30 -16 -5 -55 -18 -85 -30 -30 -12 -68 -25 -85 -30 -16 -4
-41 -12 -55 -17 -14 -6 -52 -18 -85 -28 -33 -10 -80 -23 -105 -30 -63 -19
-156 -45 -220 -62 -30 -8 -76 -21 -101 -29 -26 -8 -55 -14 -64 -14 -10 0 -41
-6 -69 -14 -75 -22 -161 -42 -251 -61 -44 -10 -107 -23 -140 -30 -132 -29
-225 -47 -450 -89 -44 -8 -107 -20 -140 -26 -33 -6 -78 -13 -100 -16 -22 -3
-76 -11 -120 -19 -44 -8 -125 -21 -180 -29 -55 -8 -134 -20 -175 -26 -41 -7
-115 -16 -163 -21 -48 -5 -92 -11 -97 -14 -5 -3 -51 -10 -102 -15 -51 -4 -129
-13 -173 -19 -44 -6 -141 -17 -215 -25 -74 -9 -180 -20 -235 -27 -55 -6 -149
-15 -210 -19 -60 -5 -164 -13 -230 -19 -345 -31 -475 -41 -520 -41 -27 0 -153
-6 -280 -15 -126 -8 -372 -21 -545 -27 -412 -17 -1618 -17 -2005 0 -445 19
-975 55 -1011 69 -11 4 -14 -11 -14 -81 l0 -86 4500 0 4500 0 0 625 c0 494 -3
625 -12 624 -7 0 -39 -19 -70 -40z"/>
</g>
</svg>
