<?xml version="1.0" standalone="no"?>
<!DOCTYPE svg PUBLIC "-//W3C//DTD SVG 20010904//EN"
 "http://www.w3.org/TR/2001/REC-SVG-20010904/DTD/svg10.dtd">
<svg version="1.0" xmlns="http://www.w3.org/2000/svg"
 width="900.000000pt" height="132.000000pt" viewBox="0 0 900.000000 132.000000"
 preserveAspectRatio="xMidYMid meet">
<metadata>
Created by potrace 1.10, written by Peter Selinger 2001-2011
</metadata>
<g transform="translate(0.000000,132.000000) scale(0.100000,-0.100000)"
fill="#000000" stroke="none">
<path d="M0 1224 c0 -76 3 -95 13 -91 14 5 148 17 417 38 80 6 246 14 370 19
124 5 342 14 485 20 167 8 490 10 900 7 601 -4 859 -12 1305 -38 102 -6 255
-15 340 -19 164 -8 363 -23 545 -41 61 -6 160 -15 220 -19 61 -5 155 -13 210
-19 55 -7 161 -18 235 -27 74 -8 171 -19 215 -25 44 -6 116 -15 160 -19 106
-11 231 -28 330 -46 44 -8 94 -14 110 -14 17 0 66 -6 110 -14 44 -9 125 -22
180 -31 236 -38 336 -56 518 -91 150 -29 231 -46 292 -59 33 -7 96 -21 140
-30 44 -10 101 -24 127 -31 26 -8 55 -14 64 -14 9 0 40 -6 68 -14 28 -8 80
-22 116 -31 106 -27 238 -63 330 -90 25 -7 72 -20 105 -30 33 -10 71 -22 85
-28 14 -5 39 -13 55 -17 17 -5 55 -18 85 -30 30 -12 69 -25 85 -30 17 -5 55
-18 85 -30 30 -12 66 -25 80 -30 113 -37 426 -190 531 -260 33 -22 67 -40 75
-40 12 0 14 91 14 635 l0 635 -4500 0 -4500 0 0 -96z"/>
</g>
</svg>
