<?xml version="1.0" standalone="no"?>
<!DOCTYPE svg PUBLIC "-//W3C//DTD SVG 20010904//EN"
 "http://www.w3.org/TR/2001/REC-SVG-20010904/DTD/svg10.dtd">
<svg version="1.0" xmlns="http://www.w3.org/2000/svg"
 width="900.000000pt" height="63.000000pt" viewBox="0 0 900.000000 63.000000"
 preserveAspectRatio="xMidYMid meet">
<metadata>
Created by potrace 1.10, written by Peter Selinger 2001-2011
</metadata>
<g transform="translate(0.000000,63.000000) scale(0.100000,-0.100000)"
fill="#000000" stroke="none">
<path d="M1305 573 c-142 -35 -224 -62 -278 -89 -16 -8 -33 -14 -38 -14 -5 0
-39 -14 -76 -31 -167 -76 -220 -99 -328 -144 -139 -57 -153 -62 -260 -96 -137
-42 -189 -56 -262 -70 l-63 -12 0 -58 0 -59 4500 0 4500 0 0 280 0 280 -37 0
c-21 0 -63 7 -93 15 -144 39 -445 -3 -670 -93 -14 -6 -50 -20 -80 -32 -46 -19
-321 -152 -370 -180 -8 -4 -46 -22 -85 -40 -38 -17 -83 -38 -98 -46 -16 -8
-35 -14 -42 -14 -8 0 -29 -6 -47 -14 -42 -18 -120 -40 -223 -62 -113 -25 -497
-25 -640 0 -154 27 -352 84 -433 125 -188 95 -494 237 -567 264 -96 34 -112
40 -155 48 -25 4 -61 13 -80 18 -45 14 -275 14 -320 0 -19 -5 -55 -14 -80 -18
-25 -5 -61 -15 -80 -21 -111 -40 -181 -66 -225 -86 -87 -38 -125 -55 -180 -79
-33 -15 -76 -34 -95 -42 -19 -9 -42 -20 -51 -24 -101 -48 -276 -114 -409 -152
-233 -68 -553 -93 -786 -63 -145 19 -253 41 -302 62 -18 8 -40 14 -48 14 -9 0
-28 6 -42 13 -15 8 -43 21 -62 30 -63 28 -123 58 -245 122 -134 71 -180 94
-275 137 -36 16 -78 36 -93 44 -16 8 -35 14 -42 14 -8 0 -29 6 -47 14 -36 16
-113 36 -228 60 -99 21 -379 21 -465 -1z"/>
</g>
</svg>
